<?xml version="1.0" encoding="UTF-8" standalone="no"?>
<!DOCTYPE svg PUBLIC "-//W3C//DTD SVG 1.1//EN"
 "http://www.w3.org/Graphics/SVG/1.1/DTD/svg11.dtd">
<!-- Generated by graphviz version 2.43.0 (0)
 -->
<!-- Title: deployment Pages: 1 -->
<svg width="1150pt" height="116pt"
 viewBox="0.00 0.00 1150.39 116.00" xmlns="http://www.w3.org/2000/svg" xmlns:xlink="http://www.w3.org/1999/xlink">
<g id="graph0" class="graph" transform="scale(1 1) rotate(0) translate(4 112)">
<title>deployment</title>
<polygon fill="white" stroke="transparent" points="-4,4 -4,-112 1146.39,-112 1146.39,4 -4,4"/>
<!-- docker_001 -->
<g id="node1" class="node">
<title>docker_001</title>
<ellipse fill="none" stroke="black" cx="63.69" cy="-90" rx="63.89" ry="18"/>
<text text-anchor="middle" x="63.69" y="-86.3" font-family="Times,serif" font-size="14.00">docker_001</text>
</g>
<!-- os_017 -->
<g id="node2" class="node">
<title>os_017</title>
<ellipse fill="none" stroke="black" cx="136.69" cy="-18" rx="42.79" ry="18"/>
<text text-anchor="middle" x="136.69" y="-14.3" font-family="Times,serif" font-size="14.00">os_017</text>
</g>
<!-- docker_001&#45;&gt;os_017 -->
<g id="edge1" class="edge">
<title>docker_001&#45;&gt;os_017</title>
<path fill="none" stroke="black" d="M80.99,-72.41C90.49,-63.3 102.42,-51.87 112.8,-41.92"/>
<polygon fill="black" stroke="black" points="115.23,-44.44 120.02,-34.99 110.38,-39.38 115.23,-44.44"/>
</g>
<!-- docker_002 -->
<g id="node3" class="node">
<title>docker_002</title>
<ellipse fill="none" stroke="black" cx="353.69" cy="-90" rx="63.89" ry="18"/>
<text text-anchor="middle" x="353.69" y="-86.3" font-family="Times,serif" font-size="14.00">docker_002</text>
</g>
<!-- os_018 -->
<g id="node4" class="node">
<title>os_018</title>
<ellipse fill="none" stroke="black" cx="425.69" cy="-18" rx="42.79" ry="18"/>
<text text-anchor="middle" x="425.69" y="-14.3" font-family="Times,serif" font-size="14.00">os_018</text>
</g>
<!-- docker_002&#45;&gt;os_018 -->
<g id="edge2" class="edge">
<title>docker_002&#45;&gt;os_018</title>
<path fill="none" stroke="black" d="M370.76,-72.41C380.04,-63.39 391.66,-52.09 401.82,-42.21"/>
<polygon fill="black" stroke="black" points="404.52,-44.47 409.25,-34.99 399.64,-39.45 404.52,-44.47"/>
</g>
<!-- docker_003 -->
<g id="node5" class="node">
<title>docker_003</title>
<ellipse fill="none" stroke="black" cx="643.69" cy="-90" rx="63.89" ry="18"/>
<text text-anchor="middle" x="643.69" y="-86.3" font-family="Times,serif" font-size="14.00">docker_003</text>
</g>
<!-- os_019 -->
<g id="node6" class="node">
<title>os_019</title>
<ellipse fill="none" stroke="black" cx="715.69" cy="-18" rx="42.79" ry="18"/>
<text text-anchor="middle" x="715.69" y="-14.3" font-family="Times,serif" font-size="14.00">os_019</text>
</g>
<!-- docker_003&#45;&gt;os_019 -->
<g id="edge3" class="edge">
<title>docker_003&#45;&gt;os_019</title>
<path fill="none" stroke="black" d="M660.76,-72.41C670.04,-63.39 681.66,-52.09 691.82,-42.21"/>
<polygon fill="black" stroke="black" points="694.52,-44.47 699.25,-34.99 689.64,-39.45 694.52,-44.47"/>
</g>
<!-- docker_004 -->
<g id="node7" class="node">
<title>docker_004</title>
<ellipse fill="none" stroke="black" cx="933.69" cy="-90" rx="63.89" ry="18"/>
<text text-anchor="middle" x="933.69" y="-86.3" font-family="Times,serif" font-size="14.00">docker_004</text>
</g>
<!-- os_020 -->
<g id="node8" class="node">
<title>os_020</title>
<ellipse fill="none" stroke="black" cx="1005.69" cy="-18" rx="42.79" ry="18"/>
<text text-anchor="middle" x="1005.69" y="-14.3" font-family="Times,serif" font-size="14.00">os_020</text>
</g>
<!-- docker_004&#45;&gt;os_020 -->
<g id="edge4" class="edge">
<title>docker_004&#45;&gt;os_020</title>
<path fill="none" stroke="black" d="M950.76,-72.41C960.04,-63.39 971.66,-52.09 981.82,-42.21"/>
<polygon fill="black" stroke="black" points="984.52,-44.47 989.25,-34.99 979.64,-39.45 984.52,-44.47"/>
</g>
<!-- docker_005 -->
<g id="node9" class="node">
<title>docker_005</title>
<ellipse fill="none" stroke="black" cx="208.69" cy="-90" rx="63.89" ry="18"/>
<text text-anchor="middle" x="208.69" y="-86.3" font-family="Times,serif" font-size="14.00">docker_005</text>
</g>
<!-- docker_005&#45;&gt;os_017 -->
<g id="edge5" class="edge">
<title>docker_005&#45;&gt;os_017</title>
<path fill="none" stroke="black" d="M191.63,-72.41C182.35,-63.39 170.73,-52.09 160.56,-42.21"/>
<polygon fill="black" stroke="black" points="162.75,-39.45 153.14,-34.99 157.87,-44.47 162.75,-39.45"/>
</g>
<!-- docker_006 -->
<g id="node10" class="node">
<title>docker_006</title>
<ellipse fill="none" stroke="black" cx="498.69" cy="-90" rx="63.89" ry="18"/>
<text text-anchor="middle" x="498.69" y="-86.3" font-family="Times,serif" font-size="14.00">docker_006</text>
</g>
<!-- docker_006&#45;&gt;os_018 -->
<g id="edge6" class="edge">
<title>docker_006&#45;&gt;os_018</title>
<path fill="none" stroke="black" d="M481.39,-72.41C471.89,-63.3 459.97,-51.87 449.59,-41.92"/>
<polygon fill="black" stroke="black" points="452.01,-39.38 442.37,-34.99 447.16,-44.44 452.01,-39.38"/>
</g>
<!-- docker_007 -->
<g id="node11" class="node">
<title>docker_007</title>
<ellipse fill="none" stroke="black" cx="788.69" cy="-90" rx="63.89" ry="18"/>
<text text-anchor="middle" x="788.69" y="-86.3" font-family="Times,serif" font-size="14.00">docker_007</text>
</g>
<!-- docker_007&#45;&gt;os_019 -->
<g id="edge7" class="edge">
<title>docker_007&#45;&gt;os_019</title>
<path fill="none" stroke="black" d="M771.39,-72.41C761.89,-63.3 749.97,-51.87 739.59,-41.92"/>
<polygon fill="black" stroke="black" points="742.01,-39.38 732.37,-34.99 737.16,-44.44 742.01,-39.38"/>
</g>
<!-- docker_008 -->
<g id="node12" class="node">
<title>docker_008</title>
<ellipse fill="none" stroke="black" cx="1078.69" cy="-90" rx="63.89" ry="18"/>
<text text-anchor="middle" x="1078.69" y="-86.3" font-family="Times,serif" font-size="14.00">docker_008</text>
</g>
<!-- docker_008&#45;&gt;os_020 -->
<g id="edge8" class="edge">
<title>docker_008&#45;&gt;os_020</title>
<path fill="none" stroke="black" d="M1061.39,-72.41C1051.89,-63.3 1039.97,-51.87 1029.59,-41.92"/>
<polygon fill="black" stroke="black" points="1032.01,-39.38 1022.37,-34.99 1027.16,-44.44 1032.01,-39.38"/>
</g>
</g>
</svg>
