<?xml version="1.0" encoding="UTF-8" standalone="no"?>
<!DOCTYPE svg PUBLIC "-//W3C//DTD SVG 1.1//EN"
 "http://www.w3.org/Graphics/SVG/1.1/DTD/svg11.dtd">
<!-- Generated by graphviz version 2.43.0 (0)
 -->
<!-- Title: graph Pages: 1 -->
<svg width="1200pt" height="188pt"
 viewBox="0.00 0.00 1199.59 188.00" xmlns="http://www.w3.org/2000/svg" xmlns:xlink="http://www.w3.org/1999/xlink">
<g id="graph0" class="graph" transform="scale(1 1) rotate(0) translate(4 184)">
<title>graph</title>
<polygon fill="white" stroke="transparent" points="-4,4 -4,-184 1195.59,-184 1195.59,4 -4,4"/>
<!-- docker_001 -->
<g id="node1" class="node">
<title>docker_001</title>
<ellipse fill="none" stroke="black" cx="169.69" cy="-162" rx="63.89" ry="18"/>
<text text-anchor="middle" x="169.69" y="-158.3" font-family="Times,serif" font-size="14.00">docker_001</text>
</g>
<!-- docker_007 -->
<g id="node7" class="node">
<title>docker_007</title>
<ellipse fill="none" stroke="black" cx="63.69" cy="-90" rx="63.89" ry="18"/>
<text text-anchor="middle" x="63.69" y="-86.3" font-family="Times,serif" font-size="14.00">docker_007</text>
</g>
<!-- docker_001&#45;&gt;docker_007 -->
<g id="edge9" class="edge">
<title>docker_001&#45;&gt;docker_007</title>
<path fill="none" stroke="black" d="M145.91,-145.29C131.28,-135.63 112.34,-123.12 96.32,-112.55"/>
<polygon fill="black" stroke="black" points="98.04,-109.49 87.77,-106.9 94.19,-115.33 98.04,-109.49"/>
</g>
<!-- docker_008 -->
<g id="node8" class="node">
<title>docker_008</title>
<ellipse fill="none" stroke="black" cx="208.69" cy="-90" rx="63.89" ry="18"/>
<text text-anchor="middle" x="208.69" y="-86.3" font-family="Times,serif" font-size="14.00">docker_008</text>
</g>
<!-- docker_001&#45;&gt;docker_008 -->
<g id="edge10" class="edge">
<title>docker_001&#45;&gt;docker_008</title>
<path fill="none" stroke="black" d="M179.14,-144.05C183.62,-136.01 189.08,-126.2 194.08,-117.23"/>
<polygon fill="black" stroke="black" points="197.26,-118.71 199.07,-108.28 191.14,-115.31 197.26,-118.71"/>
</g>
<!-- db_007 -->
<g id="node10" class="node">
<title>db_007</title>
<ellipse fill="none" stroke="black" cx="334.69" cy="-90" rx="44.39" ry="18"/>
<text text-anchor="middle" x="334.69" y="-86.3" font-family="Times,serif" font-size="14.00">db_007</text>
</g>
<!-- docker_001&#45;&gt;db_007 -->
<g id="edge11" class="edge">
<title>docker_001&#45;&gt;db_007</title>
<path fill="none" stroke="black" d="M203.48,-146.67C230.22,-135.32 267.59,-119.47 295.61,-107.58"/>
<polygon fill="black" stroke="black" points="297.26,-110.68 305.1,-103.56 294.53,-104.24 297.26,-110.68"/>
</g>
<!-- db_009 -->
<g id="node11" class="node">
<title>db_009</title>
<ellipse fill="none" stroke="black" cx="440.69" cy="-90" rx="44.39" ry="18"/>
<text text-anchor="middle" x="440.69" y="-86.3" font-family="Times,serif" font-size="14.00">db_009</text>
</g>
<!-- docker_001&#45;&gt;db_009 -->
<g id="edge12" class="edge">
<title>docker_001&#45;&gt;db_009</title>
<path fill="none" stroke="black" d="M216.68,-149.77C275.72,-135.62 371.31,-112.61 387.69,-108 391,-107.07 394.42,-106.07 397.84,-105.03"/>
<polygon fill="black" stroke="black" points="398.92,-108.36 407.44,-102.07 396.86,-101.68 398.92,-108.36"/>
</g>
<!-- docker_002 -->
<g id="node2" class="node">
<title>docker_002</title>
<ellipse fill="none" stroke="black" cx="314.69" cy="-162" rx="63.89" ry="18"/>
<text text-anchor="middle" x="314.69" y="-158.3" font-family="Times,serif" font-size="14.00">docker_002</text>
</g>
<!-- docker_002&#45;&gt;docker_007 -->
<g id="edge5" class="edge">
<title>docker_002&#45;&gt;docker_007</title>
<path fill="none" stroke="black" d="M270.97,-148.81C228.18,-136.87 162.93,-118.68 117.09,-105.89"/>
<polygon fill="black" stroke="black" points="117.91,-102.49 107.33,-103.17 116.03,-109.23 117.91,-102.49"/>
</g>
<!-- docker_002&#45;&gt;docker_008 -->
<g id="edge6" class="edge">
<title>docker_002&#45;&gt;docker_008</title>
<path fill="none" stroke="black" d="M290.91,-145.29C276.28,-135.63 257.34,-123.12 241.32,-112.55"/>
<polygon fill="black" stroke="black" points="243.04,-109.49 232.77,-106.9 239.19,-115.33 243.04,-109.49"/>
</g>
<!-- docker_002&#45;&gt;db_007 -->
<g id="edge7" class="edge">
<title>docker_002&#45;&gt;db_007</title>
<path fill="none" stroke="black" d="M319.64,-143.7C321.87,-135.9 324.55,-126.51 327.03,-117.83"/>
<polygon fill="black" stroke="black" points="330.43,-118.68 329.81,-108.1 323.69,-116.76 330.43,-118.68"/>
</g>
<!-- docker_002&#45;&gt;db_009 -->
<g id="edge8" class="edge">
<title>docker_002&#45;&gt;db_009</title>
<path fill="none" stroke="black" d="M342.35,-145.64C361.32,-135.1 386.61,-121.05 406.8,-109.83"/>
<polygon fill="black" stroke="black" points="408.63,-112.82 415.67,-104.9 405.23,-106.7 408.63,-112.82"/>
</g>
<!-- docker_003 -->
<g id="node3" class="node">
<title>docker_003</title>
<ellipse fill="none" stroke="black" cx="459.69" cy="-162" rx="63.89" ry="18"/>
<text text-anchor="middle" x="459.69" y="-158.3" font-family="Times,serif" font-size="14.00">docker_003</text>
</g>
<!-- docker_005 -->
<g id="node5" class="node">
<title>docker_005</title>
<ellipse fill="none" stroke="black" cx="566.69" cy="-90" rx="63.89" ry="18"/>
<text text-anchor="middle" x="566.69" y="-86.3" font-family="Times,serif" font-size="14.00">docker_005</text>
</g>
<!-- docker_003&#45;&gt;docker_005 -->
<g id="edge13" class="edge">
<title>docker_003&#45;&gt;docker_005</title>
<path fill="none" stroke="black" d="M483.71,-145.29C498.47,-135.63 517.59,-123.12 533.76,-112.55"/>
<polygon fill="black" stroke="black" points="535.94,-115.3 542.39,-106.9 532.11,-109.44 535.94,-115.3"/>
</g>
<!-- docker_006 -->
<g id="node6" class="node">
<title>docker_006</title>
<ellipse fill="none" stroke="black" cx="711.69" cy="-90" rx="63.89" ry="18"/>
<text text-anchor="middle" x="711.69" y="-86.3" font-family="Times,serif" font-size="14.00">docker_006</text>
</g>
<!-- docker_003&#45;&gt;docker_006 -->
<g id="edge14" class="edge">
<title>docker_003&#45;&gt;docker_006</title>
<path fill="none" stroke="black" d="M503.59,-148.81C546.55,-136.87 612.06,-118.68 658.08,-105.89"/>
<polygon fill="black" stroke="black" points="659.18,-109.22 667.88,-103.17 657.31,-102.47 659.18,-109.22"/>
</g>
<!-- docker_003&#45;&gt;db_007 -->
<g id="edge15" class="edge">
<title>docker_003&#45;&gt;db_007</title>
<path fill="none" stroke="black" d="M432.26,-145.64C413.44,-135.1 388.35,-121.05 368.32,-109.83"/>
<polygon fill="black" stroke="black" points="369.95,-106.73 359.52,-104.9 366.53,-112.84 369.95,-106.73"/>
</g>
<!-- docker_003&#45;&gt;db_009 -->
<g id="edge16" class="edge">
<title>docker_003&#45;&gt;db_009</title>
<path fill="none" stroke="black" d="M455,-143.7C452.88,-135.9 450.33,-126.51 447.98,-117.83"/>
<polygon fill="black" stroke="black" points="451.33,-116.84 445.34,-108.1 444.58,-118.67 451.33,-116.84"/>
</g>
<!-- docker_004 -->
<g id="node4" class="node">
<title>docker_004</title>
<ellipse fill="none" stroke="black" cx="604.69" cy="-162" rx="63.89" ry="18"/>
<text text-anchor="middle" x="604.69" y="-158.3" font-family="Times,serif" font-size="14.00">docker_004</text>
</g>
<!-- docker_004&#45;&gt;docker_005 -->
<g id="edge17" class="edge">
<title>docker_004&#45;&gt;docker_005</title>
<path fill="none" stroke="black" d="M595.5,-144.05C591.13,-136.01 585.81,-126.2 580.93,-117.23"/>
<polygon fill="black" stroke="black" points="583.92,-115.39 576.07,-108.28 577.77,-118.73 583.92,-115.39"/>
</g>
<!-- docker_004&#45;&gt;docker_006 -->
<g id="edge18" class="edge">
<title>docker_004&#45;&gt;docker_006</title>
<path fill="none" stroke="black" d="M628.71,-145.29C643.47,-135.63 662.59,-123.12 678.76,-112.55"/>
<polygon fill="black" stroke="black" points="680.94,-115.3 687.39,-106.9 677.11,-109.44 680.94,-115.3"/>
</g>
<!-- docker_004&#45;&gt;db_007 -->
<g id="edge19" class="edge">
<title>docker_004&#45;&gt;db_007</title>
<path fill="none" stroke="black" d="M557.47,-149.88C503.7,-137.15 419.23,-116.9 387.69,-108 384.39,-107.07 380.97,-106.06 377.55,-105.03"/>
<polygon fill="black" stroke="black" points="378.53,-101.67 367.95,-102.06 376.47,-108.36 378.53,-101.67"/>
</g>
<!-- docker_004&#45;&gt;db_009 -->
<g id="edge20" class="edge">
<title>docker_004&#45;&gt;db_009</title>
<path fill="none" stroke="black" d="M571.11,-146.67C544.54,-135.32 507.39,-119.47 479.54,-107.58"/>
<polygon fill="black" stroke="black" points="480.68,-104.26 470.11,-103.56 477.93,-110.7 480.68,-104.26"/>
</g>
<!-- db_003 -->
<g id="node9" class="node">
<title>db_003</title>
<ellipse fill="none" stroke="black" cx="387.69" cy="-18" rx="44.39" ry="18"/>
<text text-anchor="middle" x="387.69" y="-14.3" font-family="Times,serif" font-size="14.00">db_003</text>
</g>
<!-- docker_005&#45;&gt;db_003 -->
<g id="edge24" class="edge">
<title>docker_005&#45;&gt;db_003</title>
<path fill="none" stroke="black" d="M530.9,-75C501.17,-63.37 458.88,-46.84 427.96,-34.75"/>
<polygon fill="black" stroke="black" points="428.95,-31.37 418.36,-30.99 426.4,-37.89 428.95,-31.37"/>
</g>
<!-- docker_006&#45;&gt;db_003 -->
<g id="edge23" class="edge">
<title>docker_006&#45;&gt;db_003</title>
<path fill="none" stroke="black" d="M664.87,-77.77C656.49,-75.81 647.84,-73.82 639.69,-72 569.28,-56.28 487.5,-39.32 436.66,-28.93"/>
<polygon fill="black" stroke="black" points="437.11,-25.45 426.61,-26.88 435.71,-32.31 437.11,-25.45"/>
</g>
<!-- docker_007&#45;&gt;db_003 -->
<g id="edge21" class="edge">
<title>docker_007&#45;&gt;db_003</title>
<path fill="none" stroke="black" d="M110.52,-77.77C118.89,-75.81 127.55,-73.82 135.69,-72 206.11,-56.28 287.89,-39.32 338.73,-28.93"/>
<polygon fill="black" stroke="black" points="339.68,-32.31 348.78,-26.88 338.28,-25.45 339.68,-32.31"/>
</g>
<!-- docker_008&#45;&gt;db_003 -->
<g id="edge22" class="edge">
<title>docker_008&#45;&gt;db_003</title>
<path fill="none" stroke="black" d="M244.49,-75C274.22,-63.37 316.51,-46.84 347.42,-34.75"/>
<polygon fill="black" stroke="black" points="348.99,-37.89 357.03,-30.99 346.44,-31.37 348.99,-37.89"/>
</g>
<!-- os_022 -->
<g id="node12" class="node">
<title>os_022</title>
<ellipse fill="none" stroke="black" cx="888.69" cy="-162" rx="42.79" ry="18"/>
<text text-anchor="middle" x="888.69" y="-158.3" font-family="Times,serif" font-size="14.00">os_022</text>
</g>
<!-- os_018 -->
<g id="node13" class="node">
<title>os_018</title>
<ellipse fill="none" stroke="black" cx="836.69" cy="-90" rx="42.79" ry="18"/>
<text text-anchor="middle" x="836.69" y="-86.3" font-family="Times,serif" font-size="14.00">os_018</text>
</g>
<!-- os_022&#45;&gt;os_018 -->
<g id="edge1" class="edge">
<title>os_022&#45;&gt;os_018</title>
<path fill="none" stroke="black" d="M876.37,-144.41C870.02,-135.87 862.16,-125.28 855.11,-115.79"/>
<polygon fill="black" stroke="black" points="857.7,-113.41 848.93,-107.47 852.08,-117.58 857.7,-113.41"/>
</g>
<!-- os_017 -->
<g id="node14" class="node">
<title>os_017</title>
<ellipse fill="none" stroke="black" cx="940.69" cy="-90" rx="42.79" ry="18"/>
<text text-anchor="middle" x="940.69" y="-86.3" font-family="Times,serif" font-size="14.00">os_017</text>
</g>
<!-- os_022&#45;&gt;os_017 -->
<g id="edge2" class="edge">
<title>os_022&#45;&gt;os_017</title>
<path fill="none" stroke="black" d="M901.02,-144.41C907.36,-135.87 915.23,-125.28 922.28,-115.79"/>
<polygon fill="black" stroke="black" points="925.31,-117.58 928.46,-107.47 919.69,-113.41 925.31,-117.58"/>
</g>
<!-- os_021 -->
<g id="node15" class="node">
<title>os_021</title>
<ellipse fill="none" stroke="black" cx="1096.69" cy="-162" rx="42.79" ry="18"/>
<text text-anchor="middle" x="1096.69" y="-158.3" font-family="Times,serif" font-size="14.00">os_021</text>
</g>
<!-- os_019 -->
<g id="node16" class="node">
<title>os_019</title>
<ellipse fill="none" stroke="black" cx="1044.69" cy="-90" rx="42.79" ry="18"/>
<text text-anchor="middle" x="1044.69" y="-86.3" font-family="Times,serif" font-size="14.00">os_019</text>
</g>
<!-- os_021&#45;&gt;os_019 -->
<g id="edge3" class="edge">
<title>os_021&#45;&gt;os_019</title>
<path fill="none" stroke="black" d="M1084.37,-144.41C1078.02,-135.87 1070.16,-125.28 1063.11,-115.79"/>
<polygon fill="black" stroke="black" points="1065.7,-113.41 1056.93,-107.47 1060.08,-117.58 1065.7,-113.41"/>
</g>
<!-- os_020 -->
<g id="node17" class="node">
<title>os_020</title>
<ellipse fill="none" stroke="black" cx="1148.69" cy="-90" rx="42.79" ry="18"/>
<text text-anchor="middle" x="1148.69" y="-86.3" font-family="Times,serif" font-size="14.00">os_020</text>
</g>
<!-- os_021&#45;&gt;os_020 -->
<g id="edge4" class="edge">
<title>os_021&#45;&gt;os_020</title>
<path fill="none" stroke="black" d="M1109.02,-144.41C1115.36,-135.87 1123.23,-125.28 1130.28,-115.79"/>
<polygon fill="black" stroke="black" points="1133.31,-117.58 1136.46,-107.47 1127.69,-113.41 1133.31,-117.58"/>
</g>
</g>
</svg>
